<?xml version="1.0" encoding="utf-8"?>
<!-- Generator: Adobe Illustrator 24.3.0, SVG Export Plug-In . SVG Version: 6.00 Build 0)  -->
<svg version="1.1" id="Layer_1" xmlns="http://www.w3.org/2000/svg" xmlns:xlink="http://www.w3.org/1999/xlink" x="0px" y="0px"
	 viewBox="0 0 44 42" style="enable-background:new 0 0 44 42;" xml:space="preserve">
<style type="text/css">
	.st0{fill:#262638;}
	.st1{fill:#DD4B5E;}
	.st2{fill:none;stroke:#262638;stroke-miterlimit:10;}
</style>
<circle class="st0" cx="21.5" cy="21.5" r="20.5"/>
<path class="st1" d="M13.9,12.7l12.5,12.5l1,1c-5.5,5.5-10.9-0.9-18.1-8.2"/>
<g>
	<g>
		<g>
			<path class="st1" d="M25.3,22.7L25.3,22.7v-7.1c0-4.9,4-9,9-9l0,0v7.1C34.2,18.6,30.2,22.7,25.3,22.7z"/>
		</g>
		<g>
			<path class="st1" d="M18.4,37.8L18.4,37.8c-7.8,0-10.8-5.6-10.8-13.4V11h0c7.8,0,10.8,5.6,10.8,13.4V37.8z"/>
			<path class="st2" d="M18.4,37.8L18.4,37.8c-7.8,0-10.8-5.6-10.8-13.4V11h0c7.8,0,10.8,5.6,10.8,13.4V37.8z"/>
		</g>
	</g>
</g>
</svg>
