<?xml version="1.0" encoding="utf-8"?>
<!-- Generator: Adobe Illustrator 24.3.0, SVG Export Plug-In . SVG Version: 6.00 Build 0)  -->
<svg version="1.1" id="Layer_1" xmlns="http://www.w3.org/2000/svg" xmlns:xlink="http://www.w3.org/1999/xlink" x="0px" y="0px"
	 viewBox="0 0 384 116" style="enable-background:new 0 0 384 116;" xml:space="preserve">
<style type="text/css">
	.st0{fill:#DD4B5E;}
	.st1{fill:#262638;}
	.st2{fill:#262638;stroke:#262638;stroke-width:0.5;stroke-miterlimit:10;}
	.st3{fill:#DD4B5E;stroke:#DD4B5E;stroke-width:0.5;stroke-miterlimit:10;}
</style>
<path class="st0" d="M31.2,27.7L69.6,66l3.1,3.1C55.9,86,39.4,66.4,17.1,44.1"/>
<g>
	<g>
		<g>
			<path class="st1" d="M66.2,58.3L66.2,58.3V36.5C66.2,21.3,78.5,9,93.7,9l0,0v21.8C93.7,46,81.4,58.3,66.2,58.3z"/>
		</g>
		<g>
			<path class="st1" d="M45.3,104.6L45.3,104.6c-23.8,0-33-17.2-33-41v-41h0c23.8,0,33,17.2,33,41V104.6z"/>
		</g>
	</g>
</g>
<path class="st2" d="M80.8,91.8l-5.4,16.6l0,0c-3.5,0-6-3.4-4.8-6.7l13.1-38.3c1.6-4.6,5.9-7.7,10.8-7.7h0l15.7,45.9
	c1.2,3.4-1.4,6.9-4.9,6.9h0l-5.6-16.6H80.8z M98.1,86.4l-5.2-15.2c-1.2-3.4-2-6.6-2.7-9.6h-0.2c-0.7,3.1-1.6,6.3-2.6,9.6l-5.2,15.3
	H98.1z"/>
<path class="st2" d="M126.4,67.1c0-4.9-0.2-8.8-0.3-12.3l0,0c3.5,0,6.3,2.7,6.5,6.2l0,0.2h0.2c2.7-4.6,7.3-7.3,13.5-7.3
	c9.2,0,16.1,7.7,16.1,19.2c0,13.6-8.3,20.4-17.1,20.4c-5.2,0-9.5-2.2-11.7-6h-0.2v20.6l0,0c-3.8,0-6.8-3-6.8-6.8V67.1z M133.2,77.2
	c0,1,0.1,2,0.3,2.8c1.3,4.9,5.4,8.1,10.3,8.1c7.3,0,11.5-6,11.5-14.6c0-7.6-4-14-11.3-14c-4.7,0-9.1,3.3-10.4,8.5
	c-0.2,0.9-0.5,1.9-0.5,2.8V77.2z"/>
<path class="st2" d="M171,67.1c0-2.2,0-4.3-0.1-6.2c-0.1-3.3,2.6-6.1,6-6.1h0l0.3,6.4h0.2c2.7-4.6,7.3-7.3,13.5-7.3
	c9.2,0,16.1,7.7,16.1,19.2c0,13.6-8.3,20.4-17.1,20.4c-5.2,0-9.5-2.2-11.7-6h-0.2v20.6l0,0c-3.8,0-6.8-3-6.8-6.8V67.1z M177.9,77.2
	c0,1,0.1,2,0.3,2.8c1.3,4.9,5.4,8.1,10.3,8.1c7.3,0,11.5-6,11.5-14.6c0-7.6-4-14-11.3-14c-4.7,0-9.1,3.3-10.4,8.5
	c-0.2,0.9-0.5,1.9-0.5,2.8V77.2z"/>
<path class="st3" d="M213.6,101.9V63.2c0-4.2,3.4-7.6,7.6-7.6l0,0L238,82.2c3.8,6.3,7,11.8,9.5,17.2l0.2-0.1
	c-0.6-7-0.8-13.5-0.8-21.6V55.6h0c3.5,0,6.4,2.9,6.4,6.4v39.5c0,3.8-3.1,6.9-6.9,6.9h0l-16.8-26.8c-3.7-5.9-7.2-11.9-9.9-17.6
	l-0.2,0.1c0.4,6.7,0.5,13,0.5,21.8v22.6h0C216.5,108.4,213.6,105.4,213.6,101.9z"/>
<path class="st2" d="M293.8,99.3c0,1.6,0,3.1,0.1,4.6c0.1,2.4-1.8,4.5-4.3,4.5l0,0c-0.9,0-1.6-0.6-1.7-1.5l-0.4-3.3h-0.2
	c-2.1,2.9-6.2,5.6-11.6,5.6c-7.6,0-11.6-5.5-11.6-10.9c0-9.2,8.1-14.2,22.8-14v-0.9c0-3.1-0.9-8.8-8.6-8.8c-2,0-4.1,0.4-6,1
	c-2.2,0.7-4.7-0.5-5.4-2.7v0c3.1-2,7.8-3.3,12.5-3.3c11.6,0,14.4,7.9,14.4,15.5V99.3z M287.2,89.1c-7.5-0.2-16.1,1.1-16.1,8.5
	c0,4.5,3.1,6.6,6.5,6.6c5,0,8.1-3.1,9.2-6.3c0.2-0.8,0.3-1.5,0.3-2.2V89.1z"/>
<path class="st2" d="M311.8,52.8L311.8,52.8v23.8h0.2c2.4-4.2,6.8-6.9,12.9-6.9c9.4,0,16.1,7.8,16.1,19.3c0,13.5-8.7,20.3-17.1,20.3
	c-5.5,0-9.9-2.1-12.8-7h-0.2l-0.3,6.2h-2.4c-1.9,0-3.5-1.6-3.4-3.6c0.1-2,0.1-4.2,0.1-6.2V59.6C304.9,55.8,308,52.8,311.8,52.8z
	 M311.8,93.2c0,0.9,0.1,1.7,0.3,2.5c1.3,4.9,5.4,8.1,10.3,8.1c7.3,0,11.5-5.9,11.5-14.6c0-7.6-3.9-14.1-11.4-14.1
	c-4.6,0-9,3.2-10.4,8.5c-0.2,0.9-0.4,1.7-0.4,2.8V93.2z"/>
<path class="st2" d="M357.3,59.8c0,2.3-1.7,4.2-4.4,4.2c-2.5,0-4.2-1.9-4.2-4.2c-0.1-2.3,1.7-4.3,4.2-4.3
	C355.5,55.5,357.2,57.4,357.3,59.8z M349.6,108.4v-31c0-3.8,3-6.8,6.8-6.8l0,0v37.8H349.6z"/>
<path class="st2" d="M367.9,52.8L367.9,52.8c3.8,0,6.8,3,6.8,6.8v48.8h-6.8V52.8z"/>
</svg>
