<svg width="158" height="47" viewBox="0 0 158 47" fill="none" xmlns="http://www.w3.org/2000/svg">
<g clip-path="url(#clip0)">
<path fill-rule="evenodd" clip-rule="evenodd" d="M98.0201 36.5066C88.8384 43.1417 75.5302 46.6818 64.0721 46.6818C48.0059 46.6818 33.5422 40.8559 22.5999 31.1662C21.7402 30.4042 22.5105 29.3658 23.5421 29.9592C35.3511 36.6954 49.9523 40.748 65.0349 40.748C75.207 40.748 86.3969 38.6846 96.6858 34.4028C98.2402 33.7555 99.54 35.4008 98.0201 36.5066" fill="#FF9900"/>
<path fill-rule="evenodd" clip-rule="evenodd" d="M101.837 32.2248C100.668 30.7549 94.0792 31.5303 91.1218 31.8742C90.2209 31.9821 90.0833 31.2134 90.8949 30.6604C96.1425 27.0395 104.753 28.0846 105.757 29.2984C106.762 30.5188 105.496 38.9813 100.565 43.0204C99.8083 43.6407 99.0861 43.3103 99.4231 42.4877C100.53 39.777 103.013 33.7015 101.837 32.2248" fill="#FF9900"/>
<path fill-rule="evenodd" clip-rule="evenodd" d="M91.3282 5.09774V1.5779C91.3282 1.0452 91.7408 0.68782 92.236 0.68782H108.309C108.825 0.68782 109.238 1.05194 109.238 1.5779V4.59202C109.231 5.09774 108.797 5.75856 108.027 6.80372L99.6983 18.4624C102.793 18.3882 106.06 18.84 108.866 20.3909C109.499 20.7415 109.671 21.254 109.719 21.7597V25.5155C109.719 26.028 109.141 26.6281 108.536 26.318C103.591 23.7759 97.0229 23.4994 91.5551 26.3449C90.998 26.6416 90.4135 26.0482 90.4135 25.5358V21.9687C90.4135 21.3956 90.4203 20.4178 91.0049 19.548L100.654 5.98107H92.2567C91.7408 5.98107 91.3282 5.6237 91.3282 5.09774" fill="white"/>
<path fill-rule="evenodd" clip-rule="evenodd" d="M32.6963 27.0597H27.8063C27.3386 27.026 26.9672 26.6821 26.9328 26.2438V1.63859C26.9328 1.14635 27.3524 0.75525 27.8751 0.75525H32.435C32.9095 0.775466 33.2878 1.13286 33.3222 1.57789V4.79431H33.4116C34.6014 1.68578 36.8366 0.236038 39.8491 0.236038C42.9096 0.236038 44.8216 1.68578 46.1971 4.79431C47.3801 1.68578 50.0692 0.236038 52.951 0.236038C55.0005 0.236038 57.2426 1.06543 58.6113 2.92649C60.1587 4.99659 59.8424 8.00397 59.8424 10.6405L59.8355 26.1696C59.8355 26.6618 59.4159 27.0597 58.8932 27.0597H54.0101C53.5218 27.026 53.1298 26.6416 53.1298 26.1696V13.1286C53.1298 12.0902 53.2261 9.50092 52.9922 8.51644C52.6277 6.86441 51.5342 6.39914 50.1174 6.39914C48.9344 6.39914 47.6964 7.17458 47.1944 8.4153C46.6923 9.65601 46.7405 11.7328 46.7405 13.1286V26.1696C46.7405 26.6618 46.3209 27.0597 45.7982 27.0597H40.9151C40.4199 27.026 40.0348 26.6416 40.0348 26.1696L40.0279 13.1286C40.0279 10.3843 40.4887 6.34519 37.0155 6.34519C33.501 6.34519 33.6386 10.2831 33.6386 13.1286V26.1696C33.6386 26.6618 33.219 27.0597 32.6963 27.0597" fill="white"/>
<path fill-rule="evenodd" clip-rule="evenodd" d="M123.075 0.236038C130.331 0.236038 134.258 6.34519 134.258 14.1131C134.258 21.6181 129.919 27.5721 123.075 27.5721C115.95 27.5721 112.071 21.463 112.071 13.8501C112.071 6.1901 115.998 0.236038 123.075 0.236038V0.236038ZM123.117 5.25957C119.513 5.25957 119.286 10.0741 119.286 13.0747C119.286 16.0821 119.238 22.5014 123.075 22.5014C126.865 22.5014 127.044 17.3228 127.044 14.1671C127.044 12.0902 126.954 9.60881 126.315 7.63985C125.765 5.92713 124.671 5.25957 123.117 5.25957" fill="white"/>
<path fill-rule="evenodd" clip-rule="evenodd" d="M143.667 27.0597H138.798C138.309 27.026 137.917 26.6416 137.917 26.1696L137.91 1.55767C137.952 1.10588 138.357 0.75525 138.853 0.75525H143.385C143.811 0.775466 144.162 1.05869 144.259 1.44304V5.20563H144.348C145.717 1.84087 147.635 0.236038 151.012 0.236038C153.206 0.236038 155.345 1.01148 156.721 3.13553C158 5.10448 158 8.4153 158 10.7956V26.2842C157.945 26.7158 157.539 27.0597 157.058 27.0597H152.154C151.707 27.026 151.336 26.7023 151.287 26.2842V12.9196C151.287 10.2292 151.604 6.29125 148.227 6.29125C147.037 6.29125 145.944 7.07344 145.4 8.2602C144.712 9.7639 144.623 11.2608 144.623 12.9196V26.1696C144.616 26.6618 144.19 27.0597 143.667 27.0597" fill="white"/>
<path fill-rule="evenodd" clip-rule="evenodd" d="M78.5151 15.3066C78.5151 17.1744 78.5633 18.7321 77.6004 20.3909C76.8232 21.7395 75.5852 22.5689 74.2166 22.5689C72.339 22.5689 71.2386 21.1663 71.2386 19.0962C71.2386 15.0099 74.9731 14.2682 78.5151 14.2682V15.3066V15.3066ZM83.4464 26.9923C83.1231 27.2755 82.6555 27.2957 82.2909 27.1069C80.6678 25.7853 80.3721 25.1717 79.4849 23.9107C76.8026 26.5944 74.8975 27.3968 71.4243 27.3968C67.3046 27.3968 64.1065 24.9087 64.1065 19.9256C64.1065 16.0349 66.2523 13.3849 69.3197 12.0902C71.9745 10.9439 75.6815 10.7416 78.5151 10.4247V9.80435C78.5151 8.66478 78.6045 7.31618 77.9168 6.33171C77.3253 5.44837 76.1836 5.08425 75.1726 5.08425C73.3087 5.08425 71.6512 6.02153 71.2455 7.96351C71.1629 8.39507 70.8397 8.81988 70.3926 8.8401L65.6539 8.34112C65.255 8.25347 64.808 7.93654 64.9249 7.33642C66.0116 1.69927 71.2111 3.05176e-05 75.8603 3.05176e-05C78.24 3.05176e-05 81.3487 0.620388 83.2263 2.38705C85.606 4.56504 85.379 7.47127 85.379 10.6337V18.105C85.379 20.3504 86.3281 21.3349 87.2222 22.5486C87.5317 22.9802 87.6005 23.4994 87.2016 23.823C86.2043 24.639 84.4299 26.1561 83.4532 27.0057L83.4464 26.9922" fill="white"/>
<path fill-rule="evenodd" clip-rule="evenodd" d="M14.4087 15.3068C14.4087 17.1746 14.4568 18.7323 13.4939 20.391C12.7168 21.7397 11.4857 22.569 10.1101 22.569C8.23253 22.569 7.13899 21.1665 7.13899 19.0964C7.13899 15.0101 10.8735 14.2684 14.4087 14.2684V15.3068V15.3068ZM19.3399 26.9924C19.0167 27.2756 18.549 27.2959 18.1845 27.1071C16.5614 25.7855 16.2725 25.1718 15.3784 23.9109C12.6961 26.5946 10.7979 27.397 7.3178 27.397C3.20497 27.397 0 24.9089 0 19.9258C0 16.0351 2.1527 13.3851 5.21325 12.0904C7.86802 10.9441 11.5751 10.7418 14.4087 10.4249V9.80454C14.4087 8.66497 14.4981 7.31637 13.8172 6.33189C13.2188 5.44856 12.0771 5.08444 11.073 5.08444C9.20916 5.08444 7.54477 6.02171 7.13899 7.9637C7.05645 8.39525 6.73321 8.82006 6.29304 8.84029L1.54747 8.3413C1.14856 8.25365 0.708395 7.93672 0.818438 7.3366C1.91198 1.69945 7.1046 0.000213623 11.7539 0.000213623C14.1335 0.000213623 17.2422 0.620571 19.1198 2.38724C21.4995 4.56522 21.2725 7.47146 21.2725 10.6339V18.1052C21.2725 20.3506 22.2217 21.3351 23.1157 22.5488C23.4321 22.9804 23.5009 23.4996 23.102 23.8232C22.1047 24.6391 20.3303 26.1563 19.3537 27.0059L19.3399 26.9924" fill="white"/>
</g>
<defs>
<clipPath id="clip0">
<rect width="158" height="46.6818" fill="white"/>
</clipPath>
</defs>
</svg>
