<?xml version="1.0" encoding="utf-8"?>
<!-- Generator: Adobe Illustrator 24.3.0, SVG Export Plug-In . SVG Version: 6.00 Build 0)  -->
<svg version="1.1" id="Layer_1" xmlns="http://www.w3.org/2000/svg" xmlns:xlink="http://www.w3.org/1999/xlink" x="0px" y="0px"
	 viewBox="0 0 512 512" style="enable-background:new 0 0 512 512;" xml:space="preserve">
<style type="text/css">
	.st0{fill:#DD4B5E;}
</style>
<path class="st0" d="M505.8,323.6c-10.9-16.1-28.2-26.3-47.6-27.9s-38.2,5.5-51.6,19.6l-64.3,67.5c-10.1-29.5-38.1-50.8-71-50.8
	h-54.2C200,312.8,176,302,150,302c-25,0-49.1,10.5-66.1,28.9C65.4,351,42.6,362,19.8,362H0v150h368.6L512,332.7L505.8,323.6z
	 M354.2,482H30v-90.5c27.7-2.8,54.3-16.8,75.9-40.2C117.3,339,133.3,332,150,332c19.1,0,36.6,8.8,48,24l4.5,6h68.9
	c19.6,0,36.2,12.5,42.4,30H210v30h136.5l81.9-86.1c7.1-7.5,17.1-11.3,27.4-10.4c6.7,0.6,12.9,3,18,7L354.2,482z"/>
<path class="st0" d="M300,302c49.6,0,90-40.4,90-90s-40.4-90-90-90s-90,40.4-90,90S250.4,302,300,302z M300,152
	c33.1,0,60,26.9,60,60s-26.9,60-60,60s-60-26.9-60-60S266.9,152,300,152z"/>
<path class="st0" d="M420,152c33.1,0,60-26.9,60-60s-26.9-60-60-60s-60,26.9-60,60S386.9,152,420,152z M420,62c16.5,0,30,13.5,30,30
	s-13.5,30-30,30s-30-13.5-30-30S403.5,62,420,62z"/>
<path class="st0" d="M285,90c24.8,0,45-20.2,45-45S309.8,0,285,0s-45,20.2-45,45S260.2,90,285,90z M285,30c8.3,0,15,6.7,15,15
	s-6.7,15-15,15s-15-6.7-15-15S276.7,30,285,30z"/>
<path class="st0" d="M285,182h30v60h-30V182z"/>
</svg>
