<?xml version="1.0" encoding="utf-8"?>
<!-- Generator: Adobe Illustrator 24.3.0, SVG Export Plug-In . SVG Version: 6.00 Build 0)  -->
<svg version="1.1" id="Layer_1" xmlns="http://www.w3.org/2000/svg" xmlns:xlink="http://www.w3.org/1999/xlink" x="0px" y="0px"
	 viewBox="0 0 42 27" style="enable-background:new 0 0 42 27;" xml:space="preserve">
<style type="text/css">
	.st0{fill:#FFFFFF;}
</style>
<g>
	<g>
		<path class="st0" d="M14,0.8c2.2,0,4.2,0.6,6.1,1.7c1.3,0.7,2,1.5,2.3,1.7c-1.3,1.3-2.5,2.5-3.8,3.8c-0.9-0.8-2-1.6-3.8-1.8
			c-0.4-0.1-0.7-0.1-1.1-0.1c-3.6,0-6.6,2.6-7.5,6C6,12.9,6,13.6,6,14.4c0.3,3.2,2.4,5.8,5.3,6.7c0.7,0.2,1.5,0.3,2.3,0.3
			c0.2,0,0.4,0,0.5,0c1.4-0.1,2.6-0.4,3.8-1.2c1.9-1.3,4.6-4.2,2.6-3.9c-0.4,0-6.6,0-6.9,0c0-0.2,0-3.4,0-5l0-0.2
			c4.1,0,8.1,0,12.2,0c0.7,3.8,0.1,7.8-2.3,10.9c-1.6,2.2-3.8,3.5-6.4,4.2c-1.2,0.3-2.3,0.4-3.5,0.4c-0.3,0-0.5,0-0.8,0
			c-2.5-0.1-4.8-0.9-6.9-2.5c-2.6-1.9-4.3-4.5-5-7.7c-0.3-1.2-0.3-2.3-0.2-3.5c0.2-2.8,1.1-5.2,2.9-7.4c1.8-2.3,4.2-3.7,7-4.4
			C11.3,1,12,0.9,12.7,0.9C13.1,0.9,13.5,0.8,14,0.8z"/>
	</g>
	<g>
		<polygon class="st0" points="37.1,6.8 37.1,7 37,11.4 41.4,11.4 41.5,11.4 41.5,11.5 41.5,14.8 41.5,14.9 41.4,14.9 37,14.9 
			37,19.3 37,19.4 36.8,19.4 33.6,19.4 33.4,19.4 33.4,19.3 33.5,14.9 29.1,14.9 28.9,14.9 28.9,14.8 29,11.5 29,11.4 29.1,11.4 
			33.5,11.4 33.5,7 33.5,6.8 33.7,6.8 36.9,6.8 		"/>
	</g>
</g>
</svg>
