<?xml version="1.0" encoding="utf-8"?>
<!-- Generator: Adobe Illustrator 24.3.0, SVG Export Plug-In . SVG Version: 6.00 Build 0)  -->
<svg version="1.1" id="Layer_1" xmlns="http://www.w3.org/2000/svg" xmlns:xlink="http://www.w3.org/1999/xlink" x="0px" y="0px"
	 viewBox="0 0 35.4 34.7" style="enable-background:new 0 0 35.4 34.7;" xml:space="preserve">
<style type="text/css">
	.st0{fill:#FFFFFF;}
	.st1{fill:#1E212C;}
	.st2{fill:#161B28;}
</style>
<g id="BACKGROUND">
</g>
<g id="ELEMENTS">
	<g>
		<path class="st0" d="M32.2,15.5c1.2,9.6-6.8,17.6-16.4,16.4C9.3,31,4,25.8,3.2,19.3C2,9.7,10,1.6,19.6,2.9
			C26.1,3.7,31.4,8.9,32.2,15.5z"/>
		<g>
			<g>
				<path class="st1" d="M22.2,11.8c-0.6,0-1,0.4-1,1s0.5,1,1,1c0.6,0,1-0.4,1-1S22.8,11.8,22.2,11.8z"/>
				<path class="st1" d="M18.9,13.3c-3.2-0.9-6.1,2-5.2,5.2c0.4,1.4,1.5,2.5,2.9,2.9c3.2,0.9,6.1-2,5.2-5.2
					C21.5,14.8,20.3,13.6,18.9,13.3z M18.3,20c-1.9,0.4-3.6-1.3-3.2-3.2c0.2-1.1,1.1-1.9,2.1-2.1c1.9-0.4,3.5,1.3,3.2,3.2
					C20.2,18.9,19.4,19.8,18.3,20z"/>
				<path class="st1" d="M21.1,25.9h-6.8c-2.8,0-5.1-2.3-5.1-5.1v-6.8c0-2.8,2.3-5.1,5.1-5.1h6.8c2.8,0,5.1,2.3,5.1,5.1v6.8
					C26.3,23.6,24,25.9,21.1,25.9z M14.3,10.4c-1.9,0-3.5,1.6-3.5,3.5v6.8c0,2,1.6,3.5,3.5,3.5h6.8c2,0,3.5-1.6,3.5-3.5v-6.8
					c0-1.9-1.6-3.5-3.5-3.5C21.1,10.4,14.3,10.4,14.3,10.4z"/>
			</g>
		</g>
	</g>
</g>
<image style="overflow:visible;" width="69" height="43" xlink:href="CC88D852.jpg"  transform="matrix(1 0 0 1 -216 -30)">
</image>
<image style="overflow:visible;" width="1900" height="554" xlink:href="CC88D856.jpg"  transform="matrix(1 0 0 1 -1096.1915 -285.9787)">
</image>
<rect x="-1163" y="-879" class="st2" width="1894.1" height="561.9"/>
<path class="st2" d="M803.8-186.6c0,0-514.5,148.6-874.5,68.9"/>
</svg>
