<?xml version="1.0" encoding="utf-8"?>
<!-- Generator: Adobe Illustrator 19.1.1, SVG Export Plug-In . SVG Version: 6.00 Build 0)  -->
<svg version="1.1" id="Layer_1" xmlns="http://www.w3.org/2000/svg" xmlns:xlink="http://www.w3.org/1999/xlink" x="0px" y="0px"
	 viewBox="-223 25 512 512" style="enable-background:new -223 25 512 512;" xml:space="preserve">
<style type="text/css">
	.st0{fill:#787EAD;}
</style>
<g id="surface1">
	<path class="st0" d="M274,62h-65.7c0.2-7.3,0.4-14.6,0.4-22c0-8.3-6.7-15-15-15h-321.3c-8.3,0-15,6.7-15,15c0,7.4,0.1,14.7,0.4,22
		H-208c-8.3,0-15,6.7-15,15c0,67.2,17.6,130.6,49.5,178.6c31.5,47.4,73.5,74.6,118.9,77.2c10.3,11.2,21.2,20.3,32.5,27.3v66.7h-25.2
		c-30.4,0-55.2,24.8-55.2,55.2V507h-1.1c-8.3,0-15,6.7-15,15c0,8.3,6.7,15,15,15h273.1c8.3,0,15-6.7,15-15c0-8.3-6.7-15-15-15h-1.1
		v-25.2c0-30.4-24.7-55.2-55.2-55.2H88.2V360c11.3-7,22.2-16.1,32.5-27.3c45.4-2.6,87.4-29.8,118.9-77.2
		C271.4,207.6,289,144.2,289,77C289,68.7,282.3,62,274,62z M-148.6,238.9c-26.3-39.5-41.8-91.2-44.1-146.9h52.1
		c5.4,68.5,21.5,131.7,46.6,182c4,8,8.2,15.6,12.5,22.7C-106.4,287.2-129.5,267.5-148.6,238.9z M138.5,481.8V507h-211v-25.2
		c0-13.9,11.3-25.2,25.2-25.2h160.7C127.2,456.7,138.5,468,138.5,481.8z M58.2,426.7H7.8V373c8.2,2.2,16.6,3.3,25.2,3.3
		s16.9-1.1,25.2-3.3V426.7z M67.5,337.3c-0.7,0.3-1.3,0.6-1.9,1c-10.6,5.3-21.5,8-32.5,8c-11,0-21.9-2.7-32.5-8
		c-0.6-0.4-1.3-0.7-2-1c-11.8-6.2-23.1-15.6-33.9-27.9c-0.6-0.8-1.2-1.6-1.9-2.2C-48,294.5-58,278.9-67.2,260.5
		c-27.6-55.1-43.5-127.6-45.3-205.5h291c-1.8,77.9-17.7,150.4-45.3,205.5c-9.2,18.4-19.2,34-29.9,46.6c-0.7,0.7-1.4,1.4-1.9,2.2
		C90.6,321.7,79.2,331.1,67.5,337.3z M214.6,238.9c-19,28.6-42.1,48.3-67.1,57.7c4.3-7.1,8.5-14.7,12.5-22.7
		c25.1-50.2,41.2-113.5,46.6-182h52.1C256.3,147.6,240.9,199.4,214.6,238.9z"/>
</g>
</svg>
