<?xml version="1.0" encoding="utf-8"?>
<!-- Generator: Adobe Illustrator 24.3.0, SVG Export Plug-In . SVG Version: 6.00 Build 0)  -->
<svg version="1.1" xmlns="http://www.w3.org/2000/svg" xmlns:xlink="http://www.w3.org/1999/xlink" x="0px" y="0px"
	 viewBox="0 0 36.76 34.86" style="enable-background:new 0 0 36.76 34.86;" xml:space="preserve">
<style type="text/css">
	.st0{fill:#FFFFFF;}
	.st1{fill:#1E212C;}
</style>
<g id="BACKGROUND">
</g>
<g id="ELEMENTS">
	<g>
		<g>
			<circle class="st0" cx="18.38" cy="17.43" r="14.62"/>
			<path class="st1" d="M12.25,14.71h2.83v9.1h-2.83V14.71z M13.66,10.19c0.91,0,1.64,0.73,1.64,1.64c0,0.9-0.73,1.64-1.64,1.64
				c-0.91,0-1.64-0.74-1.64-1.64C12.02,10.92,12.76,10.19,13.66,10.19"/>
			<path class="st1" d="M16.85,14.71h2.71v1.24h0.04c0.38-0.72,1.3-1.47,2.68-1.47c2.86,0,3.39,1.88,3.39,4.33v4.99h-2.83v-4.42
				c0-1.06-0.02-2.41-1.47-2.41c-1.47,0-1.7,1.15-1.7,2.34v4.5h-2.83V14.71z"/>
		</g>
	</g>
</g>
</svg>
