<?xml version="1.0" encoding="utf-8"?>
<!-- Generator: Adobe Illustrator 24.3.0, SVG Export Plug-In . SVG Version: 6.00 Build 0)  -->
<svg version="1.1" id="Layer_1" xmlns="http://www.w3.org/2000/svg" xmlns:xlink="http://www.w3.org/1999/xlink" x="0px" y="0px"
	 viewBox="0 0 38 30" style="enable-background:new 0 0 38 30;" xml:space="preserve">
<style type="text/css">
	.st0{fill:#E65B7C;}
</style>
<g>
	<g>
		<path class="st0" d="M3.7,1l12.9,14.6c0.7,0.8,1.8,1.3,2.9,1.3c1.1,0,2.2-0.5,2.9-1.3L35,1.2c0.1-0.1,0.2-0.2,0.4-0.3
			c-0.5-0.2-1.1-0.4-1.7-0.4H5.3C4.7,0.6,4.2,0.7,3.7,1C3.7,0.9,3.7,1,3.7,1z"/>
		<path class="st0" d="M37.3,2.6c-0.1,0.1-0.1,0.3-0.2,0.4L24.4,17.4c-1.3,1.4-3.1,2.2-5,2.2c-1.9,0-3.7-0.8-5-2.2L1.7,2.8
			c0,0,0-0.1-0.1-0.1C1.2,3.4,1,4.1,1,5v19.8c0,2.4,2,4.4,4.4,4.4h28.3c2.4,0,4.4-2,4.4-4.4V5C38,4.1,37.8,3.3,37.3,2.6z"/>
	</g>
</g>
</svg>
