<svg width="512" height="512" viewBox="0 0 512 512" fill="none" xmlns="http://www.w3.org/2000/svg">
<path d="M511.507 143.902C510.713 137.391 507.427 131.58 502.255 127.543L345.517 5.18525C334.863 -3.13115 319.402 -1.24206 311.052 9.40046L159.214 202.979L58.4638 270.431C58.4618 270.432 58.4598 270.434 58.4568 270.435L30.6465 289.055L11.2245 302.059C10.8825 302.288 10.5475 302.524 10.2205 302.768C5.30725 306.416 1.97209 311.683 0.780031 317.723C-0.488031 324.15 0.823033 330.683 4.47121 336.119L4.48421 336.138C4.48421 336.139 4.48521 336.14 4.48621 336.141L28.0084 371.192L36.1568 383.335L83.6161 454.055C83.6161 454.055 83.6171 454.056 83.6171 454.057L91.4905 465.79L115.217 501.144C119.946 508.192 127.726 512.002 135.645 512.002C140.343 512.002 145.091 510.66 149.28 507.856L149.295 507.846C149.297 507.844 149.3 507.843 149.302 507.842L195.418 476.967L215.789 492.869C220.265 496.362 225.587 498.055 230.874 498.055C238.177 498.055 245.412 494.826 250.254 488.654L330.204 386.727L446.762 308.691C446.915 308.603 447.073 308.53 447.222 308.431L494.455 276.807C499.918 273.149 503.628 267.586 504.899 261.144C506.167 254.716 504.856 248.183 501.207 242.747L501.181 242.709C501.177 242.704 501.174 242.698 501.171 242.693L474.434 202.851L506.454 162.029C510.507 156.857 512.303 150.42 511.507 143.902V143.902ZM66.4012 330.639C63.4561 345.561 55.6687 358.733 44.2062 368.408L20.381 332.906L16.9408 327.779C15.5218 325.664 15.0107 323.121 15.5048 320.62C15.9378 318.426 17.0968 316.494 18.8039 315.091C19.0479 314.891 19.3039 314.701 19.5699 314.523L33.0316 305.511L60.2329 287.3C67.1513 300.595 69.3444 315.725 66.4012 330.639ZM140.942 495.383C136.55 498.312 130.6 497.147 127.671 492.782L127.343 492.293L100.491 452.279C127.933 438.051 161.81 444.64 181.728 468.077L140.942 495.383ZM238.45 479.393C235.194 483.543 229.169 484.284 225.018 481.043L208.54 468.179L290.052 413.606L238.45 479.393ZM439.275 248.224C442.221 233.302 450.008 220.13 461.471 210.454L488.724 251.066C490.135 253.179 490.642 255.715 490.149 258.211C489.654 260.719 488.211 262.884 486.084 264.308L445.427 291.528C438.522 278.243 436.335 263.125 439.275 248.224V248.224ZM494.648 152.769L465.641 189.75L390.439 77.6888C382.903 66.4582 367.621 63.4481 356.374 70.9775L289.921 115.468C281.863 120.864 290.207 133.325 298.268 127.933L311.396 119.143C327.212 138.599 350.691 149.038 374.582 149.038C387.873 149.038 401.286 145.795 413.581 139.094L453.075 197.945C438.312 209.897 428.28 226.463 424.558 245.318C420.84 264.151 423.814 283.263 432.905 299.909L320.799 374.964C320.788 374.972 320.776 374.979 320.765 374.987L194.243 459.694C169.626 429.444 126.481 421.028 92.0945 439.77L52.5986 380.917C67.3613 368.964 77.3938 352.398 81.116 333.543C84.8361 314.697 81.856 295.572 72.7486 278.918L263.424 151.259C271.481 145.863 263.136 133.4 255.077 138.794L199.362 176.096L322.856 18.6589C326.11 14.5107 332.134 13.7687 336.287 17.0108L493.024 139.368C495.033 140.936 496.308 143.191 496.617 145.72C496.926 148.253 496.227 150.756 494.648 152.769V152.769ZM364.721 83.4901C369.117 80.5489 375.074 81.713 378.006 86.0822L391.746 106.555L405.188 126.585C377.744 140.813 343.868 134.225 323.951 110.787L364.721 83.4901Z" fill="#787EAD"/>
<path d="M197.963 207.645C176.095 222.287 161.246 244.56 156.153 270.363C151.061 296.154 156.329 322.385 170.983 344.221C185.689 366.135 208.064 380.984 233.986 386.032C243.209 387.826 246.213 373.131 236.854 371.307C214.875 367.027 195.907 354.439 183.439 335.861C171.018 317.354 166.554 295.124 170.869 273.266C175.186 251.398 187.771 232.519 206.309 220.109C244.571 194.491 296.567 204.747 322.217 242.968C334.637 261.476 339.101 283.706 334.786 305.564C330.469 327.432 317.884 346.31 299.347 358.72C292.051 363.604 284.115 367.289 275.755 369.672C266.429 372.33 270.542 386.755 279.869 384.098C289.733 381.285 299.095 376.94 307.692 371.184C329.56 356.542 344.409 334.27 349.502 308.468C354.593 282.676 349.326 256.446 334.671 234.608C304.418 189.529 243.093 177.432 197.963 207.645V207.645Z" fill="#787EAD"/>
<path d="M367.056 220.445C368.491 220.445 369.941 220.034 371.222 219.176L406.531 195.537C409.972 193.231 410.894 188.573 408.591 185.131C406.286 181.689 401.627 180.768 398.185 183.071L362.877 206.71C359.436 209.015 358.513 213.673 360.817 217.116C362.263 219.278 364.637 220.445 367.056 220.445Z" fill="#787EAD"/>
<path d="M134.433 359.656L99.1249 383.295C95.6837 385.599 94.7616 390.257 97.0647 393.699C98.5118 395.86 100.885 397.028 103.304 397.028C104.739 397.028 106.189 396.617 107.47 395.759L142.778 372.12C146.219 369.816 147.141 365.158 144.838 361.716C142.532 358.274 137.875 357.35 134.433 359.656Z" fill="#787EAD"/>
<path d="M279.468 343.662C285.122 352.088 297.162 343.108 291.923 335.303L287.882 329.282C298.697 318.137 299.049 302.717 294.128 291.81C286.005 273.807 269.3 272.321 252.34 276.319L235.325 250.963C239.599 249.575 242.93 249.937 243.259 249.977C252.807 251.354 255.013 236.616 245.473 235.141C244.954 235.062 236.45 233.854 226.774 238.223L223.474 233.305C218.069 225.254 205.613 233.611 211.018 241.664L214.618 247.028C206.824 255.387 204.569 267.668 209.091 278.239C215.717 293.728 230.563 295.569 245.49 293.032L267.386 325.661C263.047 328.018 259.556 328.752 253.003 328.831C243.527 328.946 243.923 343.976 253.185 343.831C263.406 343.707 269.308 341.885 275.77 338.152L279.468 343.662ZM230.753 279.153C227.645 278.924 224.556 276.249 222.884 272.339C221.449 268.985 220.949 264.196 223.38 260.083L236.144 279.102C234.22 279.242 232.403 279.274 230.753 279.153V279.153ZM261.766 289.441C274.11 286.277 279.19 295.176 280.455 297.98C282.828 303.238 283.005 310.374 279.136 316.247L261.237 289.575C261.415 289.529 261.585 289.488 261.766 289.441V289.441Z" fill="#787EAD"/>
</svg>
