<?xml version="1.0" encoding="utf-8"?>
<!-- Generator: Adobe Illustrator 24.3.0, SVG Export Plug-In . SVG Version: 6.00 Build 0)  -->
<svg version="1.1" id="Layer_1" xmlns="http://www.w3.org/2000/svg" xmlns:xlink="http://www.w3.org/1999/xlink" x="0px" y="0px"
	 viewBox="0 0 197.04 244.71" style="enable-background:new 0 0 197.04 244.71;" xml:space="preserve">
<style type="text/css">
	.st0{fill:#E65B7C;}
</style>
<g>
	<g>
		<g>
			<g>
				<g>
					<path class="st0" d="M175.61,80.91h-14.87V62.28C160.74,27.94,132.77,0,98.4,0C64.08,0,36.14,27.94,36.14,62.28v18.63H21.2
						C9.54,80.91,0,90.48,0,102.11V223.3c0,11.84,9.54,21.4,21.2,21.4h154.41c11.86,0,21.43-9.57,21.43-21.4V102.11
						C197.04,90.48,187.47,80.91,175.61,80.91z M64.32,62.28c0-18.8,15.28-34.14,34.09-34.14c18.86,0,34.14,15.33,34.14,34.14v18.63
						H64.32V62.28z M109.95,188.6v30.95c0,1.34-1.13,2.29-2.44,2.29H92.66c-1.13,0-2.21-0.95-2.21-2.29V188.6
						c-10.16-3.94-17.47-13.71-17.47-25.34c0-14.97,12.19-27.17,27.22-27.17c15,0,27.19,12.19,27.19,27.17
						C127.4,174.89,120.06,184.66,109.95,188.6z"/>
				</g>
			</g>
		</g>
	</g>
</g>
</svg>
