<svg width="103" height="27" viewBox="0 0 103 27" fill="none" xmlns="http://www.w3.org/2000/svg">
<path d="M79.4526 6.85217H73.9056C73.5793 6.85217 73.253 7.17847 73.0898 7.50476L70.8058 21.8617C70.8058 22.188 70.9689 22.3511 71.2952 22.3511H74.2319C74.5582 22.3511 74.7213 22.188 74.7213 21.8617L75.3739 17.783C75.3739 17.4567 75.7002 17.1304 76.1896 17.1304H77.9843C81.7366 17.1304 83.8575 15.3358 84.347 11.7466C84.6733 10.2783 84.347 8.97309 83.6944 8.15735C82.7155 7.34162 81.2472 6.85217 79.4526 6.85217ZM80.1052 12.236C79.7789 14.1938 78.3105 14.1938 76.8422 14.1938H75.8633L76.5159 10.4414C76.5159 10.2783 76.6791 10.1151 77.0054 10.1151H77.3317C78.3105 10.1151 79.2894 10.1151 79.7789 10.7677C80.1052 10.9308 80.1052 11.4203 80.1052 12.236Z" fill="white"/>
<path d="M39.4816 6.85217H33.9346C33.6083 6.85217 33.282 7.17847 33.1188 7.50476L30.8348 21.8617C30.8348 22.188 30.9979 22.3511 31.3242 22.3511H33.9346C34.2609 22.3511 34.5872 22.0248 34.7503 21.6986L35.4029 17.783C35.4029 17.4567 35.7292 17.1304 36.2186 17.1304H38.0132C41.7656 17.1304 43.8865 15.3358 44.376 11.7466C44.7023 10.2783 44.376 8.97309 43.7234 8.15735C42.7445 7.34162 41.4393 6.85217 39.4816 6.85217ZM40.1342 12.236C39.8079 14.1938 38.3395 14.1938 36.8712 14.1938H36.0555L36.7081 10.4414C36.7081 10.2783 36.8712 10.1151 37.1975 10.1151H37.5238C38.5027 10.1151 39.4816 10.1151 39.971 10.7677C40.1342 10.9308 40.2973 11.4203 40.1342 12.236Z" fill="white"/>
<path d="M56.2857 12.0729H53.6754C53.5122 12.0729 53.1859 12.236 53.1859 12.3992L53.0228 13.2149L52.8596 12.8886C52.207 12.0729 51.065 11.7466 49.7598 11.7466C46.8232 11.7466 44.2128 14.0306 43.7234 17.1304C43.3971 18.7619 43.8865 20.2302 44.7023 21.2091C45.518 22.188 46.66 22.5143 48.1284 22.5143C50.5756 22.5143 51.8807 21.046 51.8807 21.046L51.7176 21.8617C51.7176 22.188 51.8807 22.3511 52.207 22.3511H54.6542C54.9805 22.3511 55.3068 22.0248 55.47 21.6986L56.9383 12.5623C56.7751 12.3992 56.4489 12.0729 56.2857 12.0729ZM52.5333 17.2936C52.207 18.7619 51.065 19.9039 49.4335 19.9039C48.6178 19.9039 47.9652 19.5776 47.6389 19.2513C47.3126 18.7619 47.1495 18.1093 47.1495 17.2936C47.3126 15.8253 48.6178 14.6832 50.0861 14.6832C50.9019 14.6832 51.3913 15.0095 51.8807 15.3358C52.3702 15.8253 52.5333 16.641 52.5333 17.2936Z" fill="white"/>
<path d="M96.0936 12.0729H93.4832C93.3201 12.0729 92.9938 12.236 92.9938 12.3992L92.8306 13.2149L92.6675 12.8886C92.0149 12.0729 90.8729 11.7466 89.5677 11.7466C86.6311 11.7466 84.0207 14.0306 83.5313 17.1304C83.205 18.7619 83.6944 20.2302 84.5101 21.2091C85.3259 22.188 86.4679 22.5143 87.9362 22.5143C90.3834 22.5143 91.6886 21.046 91.6886 21.046L91.5255 21.8617C91.5255 22.188 91.6886 22.3511 92.0149 22.3511H94.4621C94.7884 22.3511 95.1147 22.0248 95.2778 21.6986L96.7462 12.5623C96.583 12.3992 96.4199 12.0729 96.0936 12.0729ZM92.3412 17.2936C92.0149 18.7619 90.8729 19.9039 89.2414 19.9039C88.4257 19.9039 87.7731 19.5776 87.4468 19.2513C87.1205 18.7619 86.9574 18.1093 86.9574 17.2936C87.1205 15.8253 88.4257 14.6832 89.894 14.6832C90.7097 14.6832 91.1992 15.0095 91.6886 15.3358C92.3412 15.8253 92.5043 16.641 92.3412 17.2936Z" fill="white"/>
<path d="M70.4795 12.0729H67.706C67.3797 12.0729 67.2166 12.236 67.0534 12.3992L63.4642 17.9462L61.8327 12.7255C61.6696 12.3992 61.5064 12.236 61.017 12.236H58.4066C58.0803 12.236 57.9172 12.5623 57.9172 12.8886L60.8538 21.5354L58.0803 25.4509C57.9172 25.7772 58.0803 26.2667 58.4066 26.2667H61.017C61.3433 26.2667 61.5064 26.1035 61.6696 25.9404L70.6427 13.0518C71.1321 12.5623 70.8058 12.0729 70.4795 12.0729Z" fill="white"/>
<path d="M99.1934 7.34162L96.9093 22.0248C96.9093 22.3511 97.0725 22.5143 97.3988 22.5143H99.6828C100.009 22.5143 100.335 22.188 100.499 21.8617L102.783 7.50477C102.783 7.17847 102.619 7.01533 102.293 7.01533H99.6828C99.5197 6.85218 99.3565 7.01533 99.1934 7.34162Z" fill="white"/>
<path d="M18.7619 1.95776C17.6199 0.652586 15.499 0 12.5623 0H4.40497C3.91553 0 3.42609 0.489438 3.26294 0.978879L0 22.3511C0 22.8406 0.326294 23.1669 0.652588 23.1669H5.71014L7.01532 15.1727V15.499C7.17847 15.0095 7.66791 14.5201 8.15735 14.5201H10.6046C15.3358 14.5201 18.9251 12.5623 20.0671 7.17847C20.0671 7.01532 20.0671 6.85217 20.0671 6.68902C19.9039 6.68902 19.9039 6.68902 20.0671 6.68902C20.2302 4.56811 19.9039 3.26294 18.7619 1.95776Z" fill="white"/>
<path opacity="0.5" d="M19.9039 6.68903C19.9039 6.85217 19.9039 7.01532 19.9039 7.17847C18.7619 12.7255 15.1727 14.5201 10.4414 14.5201H7.9942C7.50476 14.5201 7.01532 15.0095 6.85217 15.499L5.2207 25.4509C5.2207 25.7772 5.38385 26.1035 5.87329 26.1035H10.1151C10.6046 26.1035 11.094 25.7772 11.094 25.2878V25.1246L11.9097 20.0671V19.7408C11.9097 19.2513 12.3992 18.925 12.8886 18.925H13.5412C17.6199 18.925 20.8828 17.2936 21.6986 12.3992C22.0248 10.4414 21.8617 8.64679 20.8828 7.50476C20.7197 7.17847 20.3934 6.85217 19.9039 6.68903Z" fill="white"/>
<path d="M18.7619 6.19958C18.5988 6.19958 18.4356 6.03644 18.2725 6.03644C18.1093 6.03644 17.9462 6.03644 17.783 5.87329C17.1304 5.71014 16.4778 5.71014 15.6621 5.71014H9.29938C9.13623 5.71014 8.97308 5.71014 8.80994 5.87329C8.48364 6.03644 8.3205 6.36273 8.3205 6.68902L7.01532 15.1727V15.499C7.17847 15.0095 7.66791 14.5201 8.15735 14.5201H10.6046C15.3358 14.5201 18.925 12.5623 20.0671 7.17847C20.0671 7.01532 20.0671 6.85217 20.2302 6.68902C19.9039 6.52588 19.7408 6.36273 19.4145 6.36273C18.925 6.19958 18.925 6.19958 18.7619 6.19958Z" fill="white"/>
</svg>
