<?xml version="1.0" encoding="utf-8"?>
<!-- Generator: Adobe Illustrator 24.3.0, SVG Export Plug-In . SVG Version: 6.00 Build 0)  -->
<svg version="1.1" xmlns="http://www.w3.org/2000/svg" xmlns:xlink="http://www.w3.org/1999/xlink" x="0px" y="0px"
	 viewBox="0 0 33.73 34.86" style="enable-background:new 0 0 33.73 34.86;" xml:space="preserve">
<style type="text/css">
	.st0{fill:#FFFFFF;}
	.st1{fill:#1E212C;}
</style>
<g id="BACKGROUND">
</g>
<g id="ELEMENTS">
	<g>
		<g>
			
				<ellipse transform="matrix(0.7072 -0.7071 0.7071 0.7072 -7.3869 17.0278)" class="st0" cx="16.86" cy="17.43" rx="14.65" ry="14.58"/>
			<path class="st1" d="M24.94,12.42c-0.51,0.23-1.07,0.37-1.61,0.46c0.26-0.04,0.64-0.51,0.79-0.7c0.23-0.29,0.43-0.62,0.54-0.98
				c0.01-0.03,0.02-0.06,0-0.08c-0.03-0.01-0.06-0.01-0.09,0.01c-0.61,0.33-1.24,0.56-1.91,0.73c-0.06,0.01-0.1,0-0.13-0.03
				c-0.06-0.06-0.11-0.12-0.17-0.17c-0.28-0.24-0.58-0.43-0.93-0.57c-0.45-0.18-0.94-0.26-1.42-0.23c-0.47,0.03-0.93,0.16-1.35,0.38
				c-0.42,0.22-0.79,0.52-1.09,0.89c-0.31,0.38-0.53,0.83-0.65,1.3c-0.11,0.46-0.1,0.92-0.03,1.38c0.01,0.04-0.02,0.07-0.07,0.07
				c-2.62-0.39-4.8-1.33-6.57-3.34c-0.05-0.06-0.14-0.06-0.18,0.01c-0.77,1.16-0.4,3.02,0.57,3.93c0.13,0.12,0.26,0.24,0.4,0.36
				c-0.05,0.01-0.69-0.06-1.27-0.36c-0.08-0.05-0.12-0.02-0.12,0.07c-0.01,0.13,0,0.24,0.02,0.38c0.15,1.17,0.96,2.26,2.08,2.69
				c0.13,0.06,0.28,0.1,0.42,0.13c-0.25,0.06-0.52,0.1-1.24,0.04c-0.09-0.02-0.13,0.03-0.09,0.11c0.55,1.49,1.73,1.94,2.61,2.19
				c0.12,0.02,0.24,0.02,0.36,0.05c-0.01,0.01-0.01,0.01-0.02,0.02c-0.29,0.45-1.31,0.78-1.78,0.95c-0.86,0.3-1.8,0.44-2.71,0.35
				c-0.15-0.02-0.18-0.02-0.22,0c-0.04,0.02-0.01,0.06,0.04,0.1c0.18,0.12,0.37,0.23,0.56,0.33c0.58,0.31,1.18,0.55,1.81,0.72
				c3.26,0.9,6.92,0.24,9.37-2.19c1.92-1.91,2.59-4.54,2.59-7.17c0-0.1,0.12-0.16,0.19-0.21c0.5-0.38,0.9-0.82,1.27-1.33
				c0.08-0.11,0.08-0.21,0.08-0.25c0-0.01,0-0.01,0-0.01C25.01,12.38,25.01,12.39,24.94,12.42z"/>
		</g>
	</g>
</g>
</svg>
