<?xml version="1.0" encoding="utf-8"?>
<!-- Generator: Adobe Illustrator 25.4.1, SVG Export Plug-In . SVG Version: 6.00 Build 0)  -->
<svg version="1.1" id="Layer_1" focusable="false" xmlns="http://www.w3.org/2000/svg" xmlns:xlink="http://www.w3.org/1999/xlink"
	 x="0px" y="0px" viewBox="0 0 576 512" style="enable-background:new 0 0 576 512;" xml:space="preserve">
<style type="text/css">
	.st0{fill:#75DAB4;}
</style>
<path class="st0" d="M12.97,352h32.39C67.17,454.73,181.94,512,288,512c106.23,0,220.85-57.38,242.64-160h32.39
	c10.69,0,16.04-12.93,8.48-20.48l-67.03-67.03c-4.69-4.69-12.28-4.69-16.97,0l-67.03,67.03c-7.56,7.56-2.21,20.48,8.48,20.48h35.15
	c-20.29,54.32-84.96,86.59-144.12,94.02V256h52c6.63,0,12-5.37,12-12v-40c0-6.63-5.37-12-12-12h-52v-5.47
	c37.28-13.18,63.99-48.73,64-90.52c0.01-52.24-42.39-95.27-94.63-96C235.72-0.74,192,42.53,192,96c0,41.8,26.72,77.35,64,90.53V192
	h-52c-6.63,0-12,5.37-12,12v40c0,6.63,5.37,12,12,12h52v190.02c-58.94-7.4-123.82-39.68-144.12-94.02h35.15
	c10.69,0,16.04-12.93,8.49-20.48l-67.03-67.03c-4.69-4.69-12.28-4.69-16.97,0L4.49,331.52C-3.07,339.07,2.28,352,12.97,352z M288,64
	c17.64,0,32,14.35,32,32s-14.36,32-32,32s-32-14.35-32-32S270.36,64,288,64z"/>
</svg>
