<?xml version="1.0" encoding="utf-8"?>
<!-- Generator: Adobe Illustrator 25.4.1, SVG Export Plug-In . SVG Version: 6.00 Build 0)  -->
<svg version="1.1" id="Layer_1" focusable="false" xmlns="http://www.w3.org/2000/svg" xmlns:xlink="http://www.w3.org/1999/xlink"
	 x="0px" y="0px" viewBox="0 0 512 512" style="enable-background:new 0 0 512 512;" xml:space="preserve">
<style type="text/css">
	.st0{fill:#75DAB4;}
</style>
<path class="st0" d="M454.4,89C397.7,41.3,310.2,48.5,256,103.7C201.8,48.5,114.3,41.2,57.6,89c-73.7,62-62.9,163.2-10.4,216.8
	l171.9,175.1c9.8,10,22.9,15.6,36.9,15.6c14,0,27.1-5.5,36.9-15.5l171.9-175.1C517.2,252.3,528.2,151.1,454.4,89z M431.2,272.7
	L259.3,447.9c-2.4,2.4-4.3,2.4-6.7,0L80.8,272.7C45,236.3,37.7,167.3,87.9,125C126,93,184.8,97.8,221.7,135.3l34.3,35l34.3-35
	c37-37.7,95.9-42.3,133.8-10.4C474.2,167.2,466.7,236.6,431.2,272.7L431.2,272.7z"/>
</svg>
