<?xml version="1.0" encoding="utf-8"?>
<!-- Generator: Adobe Illustrator 25.4.1, SVG Export Plug-In . SVG Version: 6.00 Build 0)  -->
<svg version="1.1" id="Layer_1" xmlns="http://www.w3.org/2000/svg" xmlns:xlink="http://www.w3.org/1999/xlink" x="0px" y="0px"
	 viewBox="0 0 19.59 14.81" style="enable-background:new 0 0 19.59 14.81;" xml:space="preserve">
<g>
	<path d="M6.2,12.6L6.2,12.6c-0.76-0.35-1.09-1.24-0.75-2l3.29-7.19c0.35-0.76,1.24-1.09,2-0.75l0,0c0.76,0.35,1.09,1.24,0.75,2
		L8.2,11.86C7.85,12.62,6.95,12.95,6.2,12.6z"/>
	<path d="M13.47,12.8L13.47,12.8c-0.78,0.29-1.65-0.11-1.94-0.89l-2.79-7.5C8.44,3.63,8.84,2.76,9.62,2.46l0,0
		c0.78-0.29,1.65,0.11,1.94,0.89l2.79,7.5C14.65,11.64,14.25,12.51,13.47,12.8z"/>
	<path d="M14.06,6.76L14.06,6.76c-0.81-0.21-1.29-1.04-1.08-1.85l0.25-0.95c0.21-0.81,1.04-1.29,1.85-1.08l0,0
		c0.81,0.21,1.29,1.04,1.08,1.85L15.9,5.69C15.69,6.49,14.86,6.97,14.06,6.76z"/>
	<path d="M3.66,9.68l2.25,2.71c0.36,0.43,1.17,0.35,1.82-0.18l0,0c0.64-0.53,0.87-1.32,0.51-1.75L6.01,7.78
		C5.99,7.76,5.98,7.74,5.96,7.72L5.13,6.85L2.92,8.82l0.79,0.92"/>
	<path d="M4.85,6.55C4.26,5.96,3.3,5.96,2.71,6.56l0,0c-0.59,0.59-0.79,1.29-0.2,1.88"/>
</g>
</svg>
